<svg data-v-423bf9ae="" xmlns="http://www.w3.org/2000/svg" viewBox="0 0 889.3525329093877 193" class="fontAboveSlogan"><!----><!----><!----><g data-v-423bf9ae="" id="8a15ccb0-65c7-4910-aa98-8d2dc0d767e3" fill="black" transform="matrix(9.13937473252815,0,0,9.13937473252815,-4.722678827672894,-46.917782556099866)"><path d="M4.40 7.90L4.40 7.90Q5.45 7.90 6.31 8.32L6.31 8.32L6.31 8.32Q7.18 8.75 7.78 9.55L7.78 9.55L6.54 11.05L6.54 11.05Q6.17 10.01 5.50 9.34L5.50 9.34L5.50 9.34Q4.83 8.67 3.91 8.67L3.91 8.67L3.91 8.67Q3.11 8.67 2.63 9.17L2.63 9.17L2.63 9.17Q2.16 9.67 2.16 10.44L2.16 10.44L2.16 10.44Q2.16 11.12 2.48 11.57L2.48 11.57L2.48 11.57Q2.81 12.03 3.30 12.31L3.30 12.31L3.30 12.31Q3.78 12.60 4.61 12.98L4.61 12.98L4.61 12.98Q5.45 13.37 5.95 13.66L5.95 13.66L5.95 13.66Q6.45 13.96 6.80 14.45L6.80 14.45L6.80 14.45Q7.14 14.94 7.14 15.64L7.14 15.64L7.14 15.64Q7.14 16.87 6.27 17.56L6.27 17.56L6.27 17.56Q5.39 18.24 3.99 18.24L3.99 18.24L3.99 18.24Q3.02 18.24 2.14 17.84L2.14 17.84L2.14 17.84Q1.26 17.44 0.77 16.74L0.77 16.74L1.97 15.36L1.97 15.36Q2.37 16.37 3.02 16.97L3.02 16.97L3.02 16.97Q3.67 17.57 4.42 17.57L4.42 17.57L4.42 17.57Q5.00 17.57 5.36 17.22L5.36 17.22L5.36 17.22Q5.71 16.87 5.71 16.39L5.71 16.39L5.71 16.39Q5.71 15.93 5.43 15.58L5.43 15.58L5.43 15.58Q5.15 15.22 4.72 14.96L4.72 14.96L4.72 14.96Q4.28 14.70 3.56 14.35L3.56 14.35L3.56 14.35Q2.62 13.89 2.03 13.52L2.03 13.52L2.03 13.52Q1.44 13.15 1.03 12.54L1.03 12.54L1.03 12.54Q0.62 11.94 0.62 11.09L0.62 11.09L0.62 11.09Q0.62 10.18 1.11 9.45L1.11 9.45L1.11 9.45Q1.61 8.72 2.48 8.31L2.48 8.31L2.48 8.31Q3.35 7.90 4.40 7.90L4.40 7.90ZM14.57 10.91L14.57 16.79L14.57 16.79Q14.57 17.00 14.67 17.13L14.67 17.13L14.67 17.13Q14.77 17.26 14.95 17.26L14.95 17.26L14.95 17.26Q15.23 17.26 15.64 16.79L15.64 16.79L15.88 17.04L15.88 17.04Q15.53 17.75 15.01 17.97L15.01 17.97L15.01 17.97Q14.49 18.19 14.22 18.19L14.22 18.19L14.22 18.19Q13.71 18.19 13.43 17.95L13.43 17.95L13.43 17.95Q13.16 17.71 13.04 17.16L13.04 17.16L13.04 17.16Q12.92 16.60 12.92 15.60L12.92 15.60L12.92 15.18L12.87 14.21L12.81 14.21L12.81 14.21Q12.47 15.71 11.81 16.98L11.81 16.98L11.81 16.98Q11.14 18.26 10.07 18.26L10.07 18.26L10.07 18.26Q9.59 18.26 9.36 18.03L9.36 18.03L9.36 18.03Q9.13 17.79 9.06 17.40L9.06 17.40L9.06 17.40Q9.00 17.01 9.00 16.32L9.00 16.32L9.00 12.43L9.00 12.43Q9.00 12.19 8.90 12.06L8.90 12.06L8.90 12.06Q8.81 11.93 8.64 11.93L8.64 11.93L8.64 11.93Q8.30 11.93 7.92 12.43L7.92 12.43L7.69 12.17L7.69 12.17Q7.92 11.65 8.29 11.38L8.29 11.38L8.29 11.38Q8.65 11.12 8.93 11.05L8.93 11.05L8.93 11.05Q9.20 10.98 9.28 10.98L9.28 10.98L9.28 10.98Q10.04 10.98 10.36 11.39L10.36 11.39L10.36 11.39Q10.68 11.80 10.68 12.43L10.68 12.43L10.68 16.17L10.68 16.17Q10.68 16.42 10.74 16.56L10.74 16.56L10.74 16.56Q10.81 16.70 10.91 16.70L10.91 16.70L10.91 16.70Q11.41 16.70 11.84 15.69L11.84 15.69L11.84 15.69Q12.28 14.67 12.54 13.38L12.54 13.38L12.54 13.38Q12.81 12.08 12.81 11.49L12.81 11.49L14.57 10.91ZM18.82 10.51L18.82 10.51Q19.77 10.51 19.77 11.27L19.77 11.27L19.77 11.27Q19.75 11.61 19.63 11.86L19.63 11.86L19.63 11.86Q19.50 12.11 19.36 12.31L19.36 12.31L19.36 12.31Q19.21 12.50 19.15 12.57L19.15 12.57L19.15 12.57Q19.33 12.78 19.81 13.17L19.81 13.17L19.81 13.17Q20.24 13.52 20.51 13.81L20.51 13.81L20.51 13.81Q20.78 14.10 20.96 14.54L20.96 14.54L20.96 14.54Q21.14 14.98 21.14 15.61L21.14 15.61L21.14 15.61Q21.14 16.34 20.78 16.95L20.78 16.95L20.78 16.95Q20.43 17.56 19.81 17.91L19.81 17.91L19.81 17.91Q19.19 18.26 18.45 18.26L18.45 18.26L18.45 18.26Q17.91 18.26 17.32 18.06L17.32 18.06L17.32 18.06Q16.73 17.86 16.44 17.51L16.44 17.51L17.46 16.14L17.46 16.14Q17.75 16.59 18.16 16.94L18.16 16.94L18.16 16.94Q18.56 17.29 18.97 17.29L18.97 17.29L18.97 17.29Q19.49 17.29 19.87 16.94L19.87 16.94L19.87 16.94Q20.24 16.59 20.24 16.06L20.24 16.06L20.24 16.06Q20.24 15.62 19.88 15.20L19.88 15.20L19.88 15.20Q19.52 14.78 18.84 14.18L18.84 14.18L18.84 14.18Q18.38 13.78 18.26 13.64L18.26 13.64L17.30 15.02L16.80 14.69L17.89 13.17L17.89 13.17Q17.61 12.67 17.61 12.01L17.61 12.01L17.61 12.01Q17.61 11.37 17.92 10.94L17.92 10.94L17.92 10.94Q18.23 10.51 18.82 10.51L18.82 10.51ZM18.82 11.09L18.82 11.09Q18.65 11.09 18.59 11.19L18.59 11.19L18.59 11.19Q18.54 11.28 18.54 11.47L18.54 11.47L18.54 11.47Q18.54 11.62 18.59 11.77L18.59 11.77L18.59 11.77Q18.65 11.93 18.72 12.08L18.72 12.08L18.72 12.08Q18.87 11.97 18.98 11.75L18.98 11.75L18.98 11.75Q19.10 11.52 19.10 11.35L19.10 11.35L19.10 11.35Q19.10 11.24 19.02 11.17L19.02 11.17L19.02 11.17Q18.94 11.09 18.82 11.09L18.82 11.09ZM26.18 11.09L26.18 11.09Q26.92 11.09 27.56 11.38L27.56 11.38L27.56 11.38Q28.20 11.68 28.50 12.29L28.50 12.29L27.15 12.85L27.15 12.85Q26.95 12.49 26.60 12.25L26.60 12.25L26.60 12.25Q26.25 12.01 25.86 12.01L25.86 12.01L25.86 12.01Q24.92 12.01 24.37 12.80L24.37 12.80L24.37 12.80Q23.83 13.58 23.83 14.76L23.83 14.76L23.83 14.76Q23.83 15.83 24.15 16.53L24.15 16.53L24.15 16.53Q24.47 17.22 25.17 17.22L25.17 17.22L25.17 17.22Q26.15 17.22 26.52 16.30L26.52 16.30L26.52 16.30Q26.88 15.39 26.88 14.31L26.88 14.31L26.88 13.69L28.52 13.10L28.52 16.74L28.52 16.74Q28.52 16.94 28.61 17.09L28.61 17.09L28.61 17.09Q28.70 17.23 28.88 17.23L28.88 17.23L28.88 17.23Q29.23 17.23 29.60 16.74L29.60 16.74L29.86 17.01L29.86 17.01Q29.65 17.50 29.20 17.84L29.20 17.84L29.20 17.84Q28.74 18.19 28.22 18.19L28.22 18.19L28.22 18.19Q27.55 18.19 27.24 17.73L27.24 17.73L27.24 17.73Q26.94 17.28 26.94 16.56L26.94 16.56L26.88 16.56L26.88 16.56Q26.54 17.32 25.98 17.79L25.98 17.79L25.98 17.79Q25.42 18.26 24.68 18.26L24.68 18.26L24.68 18.26Q23.56 18.26 22.95 17.44L22.95 17.44L22.95 17.44Q22.34 16.62 22.34 15.30L22.34 15.30L22.34 15.30Q22.34 14.18 22.83 13.22L22.83 13.22L22.83 13.22Q23.31 12.25 24.18 11.67L24.18 11.67L24.18 11.67Q25.06 11.09 26.18 11.09L26.18 11.09ZM36.08 10.96L36.08 10.96Q36.57 10.96 36.79 11.25L36.79 11.25L36.79 11.25Q37.02 11.54 37.07 11.92L37.07 11.92L37.07 11.92Q37.13 12.31 37.13 12.91L37.13 12.91L37.13 16.80L37.13 16.80Q37.13 16.97 37.23 17.12L37.23 17.12L37.23 17.12Q37.34 17.26 37.49 17.26L37.49 17.26L37.49 17.26Q37.70 17.26 37.86 17.13L37.86 17.13L37.86 17.13Q38.02 17.00 38.21 16.77L38.21 16.77L38.44 17.04L38.44 17.04Q38.19 17.53 37.75 17.86L37.75 17.86L37.75 17.86Q37.31 18.19 36.81 18.19L36.81 18.19L36.81 18.19Q36.13 18.19 35.80 17.80L35.80 17.80L35.80 17.80Q35.46 17.42 35.46 16.72L35.46 16.72L35.46 13.05L35.46 13.05Q35.46 12.85 35.42 12.71L35.42 12.71L35.42 12.71Q35.38 12.57 35.22 12.57L35.22 12.57L35.22 12.57Q34.75 12.57 34.26 13.59L34.26 13.59L34.26 13.59Q33.77 14.60 33.43 15.92L33.43 15.92L33.43 15.92Q33.10 17.23 33.10 17.91L33.10 17.91L31.46 18.27L31.46 12.39L31.46 12.39Q31.46 12.18 31.36 12.04L31.36 12.04L31.36 12.04Q31.26 11.90 31.08 11.90L31.08 11.90L31.08 11.90Q30.88 11.90 30.70 12.06L30.70 12.06L30.70 12.06Q30.51 12.22 30.38 12.43L30.38 12.43L30.13 12.15L30.13 12.15Q30.34 11.66 30.79 11.31L30.79 11.31L30.79 11.31Q31.23 10.96 31.75 10.96L31.75 10.96L31.75 10.96Q32.45 10.96 32.77 11.35L32.77 11.35L32.77 11.35Q33.10 11.73 33.10 12.42L33.10 12.42L33.10 15.12L33.15 15.12L33.15 15.12Q33.53 13.57 34.28 12.26L34.28 12.26L34.28 12.26Q35.03 10.96 36.08 10.96L36.08 10.96ZM42.95 12.01L41.54 12.01L41.54 16.80L41.54 16.80Q41.54 17.00 41.65 17.13L41.65 17.13L41.65 17.13Q41.76 17.26 41.94 17.26L41.94 17.26L41.94 17.26Q42.28 17.26 42.70 16.77L42.70 16.77L42.95 17.04L42.95 17.04Q42.70 17.54 42.32 17.79L42.32 17.79L42.32 17.79Q41.94 18.05 41.59 18.13L41.59 18.13L41.59 18.13Q41.24 18.21 41.24 18.19L41.24 18.19L41.24 18.19Q39.84 18.19 39.84 16.72L39.84 16.72L39.84 12.01L38.85 12.01L39.28 11.09L39.84 11.09L39.84 7.91L41.54 7.34L41.54 11.09L43.37 11.09L42.95 12.01ZM41.24 18.19L41.24 18.19ZM47.31 10.93L47.57 11.26L47.57 11.26Q46.65 11.91 46.12 12.75L46.12 12.75L46.12 12.75Q45.60 13.58 45.60 14.70L45.60 14.70L45.60 14.70Q45.60 15.32 45.84 15.95L45.84 15.95L45.84 15.95Q46.07 16.58 46.54 16.99L46.54 16.99L46.54 16.99Q47.00 17.40 47.64 17.40L47.64 17.40L47.64 17.40Q48.45 17.40 48.95 16.81L48.95 16.81L48.95 16.81Q49.45 16.23 49.45 15.36L49.45 15.36L49.45 15.36Q49.45 14.70 49.11 14.02L49.11 14.02L49.11 14.02Q48.76 13.34 48.19 12.87L48.19 12.87L48.19 12.87Q47.61 12.40 46.96 12.35L46.96 12.35L46.96 12.35Q47.25 12.03 47.59 11.76L47.59 11.76L47.59 11.76Q47.94 11.49 48.45 11.12L48.45 11.12L48.45 11.12Q49.46 11.45 50.06 12.36L50.06 12.36L50.06 12.36Q50.65 13.27 50.65 14.36L50.65 14.36L50.65 14.36Q50.65 15.33 50.23 16.24L50.23 16.24L50.23 16.24Q49.80 17.15 48.99 17.72L48.99 17.72L48.99 17.72Q48.19 18.28 47.12 18.28L47.12 18.28L47.12 18.28Q46.24 18.28 45.51 17.87L45.51 17.87L45.51 17.87Q44.77 17.46 44.34 16.74L44.34 16.74L44.34 16.74Q43.90 16.02 43.90 15.15L43.90 15.15L43.90 15.15Q43.90 13.65 44.85 12.52L44.85 12.52L44.85 12.52Q45.79 11.38 47.31 10.93L47.31 10.93ZM58.59 7.90L58.59 7.90Q59.64 7.90 60.51 8.32L60.51 8.32L60.51 8.32Q61.38 8.75 61.98 9.55L61.98 9.55L60.73 11.05L60.73 11.05Q60.37 10.01 59.70 9.34L59.70 9.34L59.70 9.34Q59.02 8.67 58.10 8.67L58.10 8.67L58.10 8.67Q57.30 8.67 56.83 9.17L56.83 9.17L56.83 9.17Q56.35 9.67 56.35 10.44L56.35 10.44L56.35 10.44Q56.35 11.12 56.68 11.57L56.68 11.57L56.68 11.57Q57.01 12.03 57.49 12.31L57.49 12.31L57.49 12.31Q57.97 12.60 58.80 12.98L58.80 12.98L58.80 12.98Q59.64 13.37 60.14 13.66L60.14 13.66L60.14 13.66Q60.65 13.96 60.99 14.45L60.99 14.45L60.99 14.45Q61.33 14.94 61.33 15.64L61.33 15.64L61.33 15.64Q61.33 16.87 60.46 17.56L60.46 17.56L60.46 17.56Q59.58 18.24 58.18 18.24L58.18 18.24L58.18 18.24Q57.22 18.24 56.34 17.84L56.34 17.84L56.34 17.84Q55.45 17.44 54.96 16.74L54.96 16.74L56.17 15.36L56.17 15.36Q56.56 16.37 57.21 16.97L57.21 16.97L57.21 16.97Q57.86 17.57 58.62 17.57L58.62 17.57L58.62 17.57Q59.19 17.57 59.55 17.22L59.55 17.22L59.55 17.22Q59.91 16.87 59.91 16.39L59.91 16.39L59.91 16.39Q59.91 15.93 59.63 15.58L59.63 15.58L59.63 15.58Q59.35 15.22 58.91 14.96L58.91 14.96L58.91 14.96Q58.48 14.70 57.75 14.35L57.75 14.35L57.75 14.35Q56.81 13.89 56.22 13.52L56.22 13.52L56.22 13.52Q55.64 13.15 55.22 12.54L55.22 12.54L55.22 12.54Q54.81 11.94 54.81 11.09L54.81 11.09L54.81 11.09Q54.81 10.18 55.31 9.45L55.31 9.45L55.31 9.45Q55.80 8.72 56.67 8.31L56.67 8.31L56.67 8.31Q57.54 7.90 58.59 7.90L58.59 7.90ZM66.35 11.09L66.35 11.09Q67.09 11.09 67.72 11.38L67.72 11.38L67.72 11.38Q68.36 11.68 68.67 12.29L68.67 12.29L67.31 12.85L67.31 12.85Q67.12 12.49 66.77 12.25L66.77 12.25L66.77 12.25Q66.42 12.01 66.02 12.01L66.02 12.01L66.02 12.01Q65.09 12.01 64.54 12.80L64.54 12.80L64.54 12.80Q63.99 13.58 63.99 14.76L63.99 14.76L63.99 14.76Q63.99 15.83 64.32 16.53L64.32 16.53L64.32 16.53Q64.64 17.22 65.34 17.22L65.34 17.22L65.34 17.22Q66.32 17.22 66.68 16.30L66.68 16.30L66.68 16.30Q67.05 15.39 67.05 14.31L67.05 14.31L67.05 13.69L68.68 13.10L68.68 16.74L68.68 16.74Q68.68 16.94 68.77 17.09L68.77 17.09L68.77 17.09Q68.87 17.23 69.05 17.23L69.05 17.23L69.05 17.23Q69.40 17.23 69.76 16.74L69.76 16.74L70.03 17.01L70.03 17.01Q69.82 17.50 69.36 17.84L69.36 17.84L69.36 17.84Q68.91 18.19 68.39 18.19L68.39 18.19L68.39 18.19Q67.72 18.19 67.41 17.73L67.41 17.73L67.41 17.73Q67.10 17.28 67.10 16.56L67.10 16.56L67.05 16.56L67.05 16.56Q66.71 17.32 66.15 17.79L66.15 17.79L66.15 17.79Q65.59 18.26 64.85 18.26L64.85 18.26L64.85 18.26Q63.73 18.26 63.12 17.44L63.12 17.44L63.12 17.44Q62.51 16.62 62.51 15.30L62.51 15.30L62.51 15.30Q62.51 14.18 62.99 13.22L62.99 13.22L62.99 13.22Q63.48 12.25 64.35 11.67L64.35 11.67L64.35 11.67Q65.23 11.09 66.35 11.09L66.35 11.09ZM73.88 12.98L73.88 12.98Q73.29 13.64 72.86 14.62L72.86 14.62L72.86 14.62Q72.44 15.61 72.44 16.42L72.44 16.42L72.44 16.42Q72.44 17.21 72.86 17.72L72.86 17.72L72.86 17.72Q73.28 18.23 74.05 18.23L74.05 18.23L74.05 18.23Q74.66 18.23 75.23 17.92L75.23 17.92L75.23 17.92Q75.80 17.61 76.20 17.09L76.20 17.09L75.99 16.84L75.99 16.84Q75.52 17.15 75.10 17.15L75.10 17.15L75.10 17.15Q74.47 17.15 74.14 16.72L74.14 16.72L74.14 16.72Q73.81 16.28 73.81 15.64L73.81 15.64L73.81 15.64Q73.81 14.59 74.38 13.55L74.38 13.55L74.38 13.55Q74.96 12.52 75.77 11.76L75.77 11.76L75.52 11.49L75.52 11.49Q74.58 12.11 73.72 12.11L73.72 12.11L73.72 12.11Q73.18 12.11 72.74 11.68L72.74 11.68L72.74 11.68Q72.30 11.26 72.14 10.68L72.14 10.68L70.80 12.19L70.80 12.19Q70.85 12.39 71.08 12.59L71.08 12.59L71.08 12.59Q71.30 12.78 71.34 12.82L71.34 12.82L70.41 14.76L70.98 15.01L71.89 13.06L71.89 13.06Q72.25 13.20 72.69 13.20L72.69 13.20L72.69 13.20Q73.36 13.20 73.84 12.92L73.84 12.92L73.88 12.98ZM79.21 5.15L79.21 14.97L79.31 14.97L79.31 14.97Q79.77 13.37 80.51 12.17L80.51 12.17L80.51 12.17Q81.24 10.96 82.33 10.96L82.33 10.96L82.33 10.96Q82.85 10.96 83.16 11.31L83.16 11.31L83.16 11.31Q83.47 11.66 83.47 12.18L83.47 12.18L83.47 12.18Q83.47 13.05 82.75 13.83L82.75 13.83L82.75 13.83Q82.03 14.62 81.09 15.18L81.09 15.18L81.09 15.18Q81.21 15.36 81.34 15.50L81.34 15.50L81.34 15.50Q81.91 16.28 82.37 16.75L82.37 16.75L82.37 16.75Q82.82 17.22 83.23 17.22L83.23 17.22L83.23 17.22Q83.75 17.22 84.11 16.79L84.11 16.79L84.36 17.07L84.36 17.07Q84.06 17.57 83.50 17.91L83.50 17.91L83.50 17.91Q82.94 18.24 82.32 18.24L82.32 18.24L82.32 18.24Q81.72 18.24 81.23 17.82L81.23 17.82L81.23 17.82Q80.75 17.40 80.15 16.65L80.15 16.65L80.15 16.65Q79.69 16.09 79.56 15.97L79.56 15.97L79.44 16.04L79.44 16.04Q79.35 16.34 79.29 16.91L79.29 16.91L79.29 16.91Q79.23 17.49 79.21 17.91L79.21 17.91L77.55 18.27L77.55 5.74L79.21 5.15ZM81.34 12.42L81.34 12.42Q80.86 12.42 80.35 13.50L80.35 13.50L80.35 13.50Q79.83 14.59 79.49 15.58L79.49 15.58L79.49 15.58Q80.43 15.04 81.09 14.34L81.09 14.34L81.09 14.34Q81.76 13.64 81.76 12.98L81.76 12.98L81.76 12.98Q81.76 12.75 81.65 12.59L81.65 12.59L81.65 12.59Q81.54 12.42 81.34 12.42L81.34 12.42ZM89.10 10.96L89.10 10.96Q89.91 10.96 90.45 11.38L90.45 11.38L90.45 11.38Q91.00 11.79 91.00 12.57L91.00 12.57L91.00 12.57Q91.00 13.20 90.32 13.98L90.32 13.98L90.32 13.98Q89.64 14.76 88.71 15.42L88.71 15.42L88.71 15.42Q87.78 16.09 87.12 16.38L87.12 16.38L87.12 16.38Q87.71 17.32 88.84 17.32L88.84 17.32L88.84 17.32Q89.47 17.32 90.11 16.96L90.11 16.96L90.11 16.96Q90.75 16.60 91.20 16.02L91.20 16.02L91.48 16.35L91.48 16.35Q90.75 17.26 89.94 17.76L89.94 17.76L89.94 17.76Q89.14 18.26 88.03 18.26L88.03 18.26L88.03 18.26Q87.14 18.26 86.43 17.85L86.43 17.85L86.43 17.85Q85.72 17.44 85.32 16.74L85.32 16.74L85.32 16.74Q84.92 16.03 84.92 15.15L84.92 15.15L84.92 15.15Q84.92 14.08 85.51 13.11L85.51 13.11L85.51 13.11Q86.09 12.14 87.05 11.55L87.05 11.55L87.05 11.55Q88.02 10.96 89.10 10.96L89.10 10.96ZM88.30 11.87L88.30 11.87Q87.77 11.87 87.35 12.26L87.35 12.26L87.35 12.26Q86.93 12.64 86.69 13.24L86.69 13.24L86.69 13.24Q86.45 13.85 86.45 14.49L86.45 14.49L86.45 14.49Q86.45 15.33 86.81 15.93L86.81 15.93L86.81 15.93Q87.33 15.64 87.91 15.11L87.91 15.11L87.91 15.11Q88.49 14.59 88.89 13.99L88.89 13.99L88.89 13.99Q89.28 13.38 89.28 12.89L89.28 12.89L89.28 12.89Q89.28 12.40 89.02 12.14L89.02 12.14L89.02 12.14Q88.76 11.87 88.30 11.87L88.30 11.87ZM95.61 12.98L95.61 12.98Q95.02 13.64 94.59 14.62L94.59 14.62L94.59 14.62Q94.16 15.61 94.16 16.42L94.16 16.42L94.16 16.42Q94.16 17.21 94.58 17.72L94.58 17.72L94.58 17.72Q95.00 18.23 95.77 18.23L95.77 18.23L95.77 18.23Q96.39 18.23 96.96 17.92L96.96 17.92L96.96 17.92Q97.52 17.61 97.93 17.09L97.93 17.09L97.72 16.84L97.72 16.84Q97.24 17.15 96.82 17.15L96.82 17.15L96.82 17.15Q96.19 17.15 95.87 16.72L95.87 16.72L95.87 16.72Q95.54 16.28 95.54 15.64L95.54 15.64L95.54 15.64Q95.54 14.59 96.11 13.55L96.11 13.55L96.11 13.55Q96.68 12.52 97.50 11.76L97.50 11.76L97.24 11.49L97.24 11.49Q96.31 12.11 95.45 12.11L95.45 12.11L95.45 12.11Q94.91 12.11 94.47 11.68L94.47 11.68L94.47 11.68Q94.02 11.26 93.87 10.68L93.87 10.68L92.53 12.19L92.53 12.19Q92.58 12.39 92.81 12.59L92.81 12.59L92.81 12.59Q93.03 12.78 93.07 12.82L93.07 12.82L92.13 14.76L92.71 15.01L93.62 13.06L93.62 13.06Q93.98 13.20 94.42 13.20L94.42 13.20L94.42 13.20Q95.09 13.20 95.56 12.92L95.56 12.92L95.61 12.98Z"></path></g><!----><!----><g data-v-423bf9ae="" id="856b09c0-a8e7-4318-a649-9f393ac168db" fill="black" transform="matrix(6.32244483109513,0,0,6.32244483109513,23.94915997082586,119.72286502714408)"><path d="M2.18 8.18L5.31 8.18C7.28 8.18 8.50 7.03 8.50 5.19C8.50 3.37 7.28 2.21 5.31 2.21L1.13 2.21L1.13 11.48L2.18 11.48ZM5.24 3.21C6.69 3.21 7.45 3.96 7.45 5.19C7.45 6.44 6.69 7.20 5.24 7.20L2.18 7.20L2.18 3.21ZM21.04 2.10C18.23 2.10 16.34 4.21 16.34 6.85C16.34 9.48 18.23 11.59 21.04 11.59C23.86 11.59 25.75 9.48 25.75 6.85C25.75 4.21 23.86 2.10 21.04 2.10ZM21.04 10.57C18.79 10.57 17.39 8.93 17.39 6.85C17.39 4.76 18.79 3.12 21.04 3.12C23.30 3.12 24.70 4.76 24.70 6.85C24.70 8.93 23.30 10.57 21.04 10.57ZM35.48 7.92L38.70 7.92L40.94 11.48L42.18 11.48L39.75 7.74C40.78 7.50 41.99 6.90 41.99 5.11C41.99 3.35 40.77 2.21 38.86 2.21L34.43 2.21L34.43 11.48L35.48 11.48ZM35.48 3.21L38.74 3.21C40.05 3.21 40.94 3.93 40.94 5.11C40.94 6.55 39.68 6.93 38.68 6.93L35.48 6.93ZM57.37 2.21L49.85 2.21L49.85 3.22L53.09 3.22L53.09 11.48L54.14 11.48L54.14 3.22L57.37 3.22ZM72.39 3.22L72.39 2.21L65.70 2.21L65.70 11.48L66.75 11.48L66.75 7.46L71.78 7.46L71.78 6.44L66.75 6.44L66.75 3.22ZM84.98 2.10C82.17 2.10 80.28 4.21 80.28 6.85C80.28 9.48 82.17 11.59 84.98 11.59C87.79 11.59 89.68 9.48 89.68 6.85C89.68 4.21 87.79 2.10 84.98 2.10ZM84.98 10.57C82.73 10.57 81.33 8.93 81.33 6.85C81.33 4.76 82.73 3.12 84.98 3.12C87.23 3.12 88.63 4.76 88.63 6.85C88.63 8.93 87.23 10.57 84.98 10.57ZM98.36 2.21L98.36 11.48L104.47 11.48L104.47 10.47L99.41 10.47L99.41 2.21ZM113.88 2.21L112.83 2.21L112.83 11.48L113.88 11.48ZM127.26 2.10C124.45 2.10 122.56 4.21 122.56 6.85C122.56 9.48 124.45 11.59 127.26 11.59C130.07 11.59 131.96 9.48 131.96 6.85C131.96 4.21 130.07 2.10 127.26 2.10ZM127.26 10.57C125.01 10.57 123.61 8.93 123.61 6.85C123.61 4.76 125.01 3.12 127.26 3.12C129.51 3.12 130.91 4.76 130.91 6.85C130.91 8.93 129.51 10.57 127.26 10.57Z"></path></g></svg>